<svg width="160" height="45" viewBox="0 0 160 45" fill="none" xmlns="http://www.w3.org/2000/svg">
<path d="M10.518 12.1534H28.4375C29.9298 12.1473 32.713 12.957 31.8373 16.2252C30.2973 21.9725 27.6407 21.9725 27.0387 21.9725C26.4366 21.9725 28.6197 23.2751 28 25.6533C27.3803 28.0315 26.4366 32.152 20.611 32.152C17.8902 32.152 5.73708 32.122 0 32.152L2.17797 28.2604H18.2121C18.9735 28.2604 20.3328 28.3736 20.8328 28.2604C21.3328 28.1472 22.7442 27.825 23.5 25.3143C24 23.6533 22.0546 24.0084 20.8328 24.0084H4.35593L6.35683 20.2068H23.0546C24 20.2068 25.1701 20.2303 26.4366 17.9007C27.6584 15.6533 26 16.2252 20.8328 16.2252H8.34002L10.518 12.1534Z" fill="white"/>
<path d="M31.8363 28.1538H55L53.1637 32.1538H30L31.8363 28.1538Z" fill="white"/>
<path d="M39.9098 12.1538H65.5L63 16.1538H38L39.9098 12.1538Z" fill="white"/>
<path d="M135.373 12.1538H160L133 32.1533H126.5L147.5 16.1533H133L135.373 12.1538Z" fill="white"/>
<path d="M125.204 12.1726H104.957L103 15.9596H121.698C121.698 15.9596 123.494 15.9596 123 17.5005C122.506 19.0414 121 22.0005 121 22.0005L119.112 25.445C119.112 25.445 118 27.7751 116 28.0005C114 28.2259 97 28.0005 97 28.0005L95 32.1533H115.51C115.51 32.1533 117.806 32.042 119.112 31.3959C120.418 30.7498 121.264 30.28 121.979 28.9795C124.858 23.7404 124.5 24.5005 127 18.6533C127.938 16.4596 129.027 14.5259 128.401 13.2242C127.775 11.9225 125.204 12.1726 125.204 12.1726Z" fill="white"/>
<path d="M85.5 32.1528L72.5 18.1528L65 32.1528L60 32.1528L70.5 12.1533L73.5002 12.1532L87.5 27.1528L95.5 12.1533L100.5 12.1533L90.5 32.1528L85.5 32.1528Z" fill="white"/>
<path d="M35.824 20.1538H55L53.176 24.1538H34L35.824 20.1538Z" fill="white"/>
</svg>
