<svg width="4355" height="1217" viewBox="0 0 4355 1217" fill="none" xmlns="http://www.w3.org/2000/svg">
<path d="M297.863 329.474H803.863C846.001 329.307 924.193 351.674 899.863 442.474C869.451 555.974 781.363 601.973 764.363 601.973C747.363 601.973 799.363 629.473 781.863 695.473C764.363 761.473 678.863 886.973 582.863 884.473C506.063 882.473 162.863 883.639 0.863281 884.473L62.3633 776.473H543.363C564.863 776.473 599.802 764.167 617.363 749.473C641.863 728.973 651.863 716.833 651.863 695.473C651.863 676.973 651.863 658.473 617.363 658.473H123.863L180.363 552.973H651.863C672.197 556.973 712.919 546.174 747.363 488.973C775.363 442.474 741.863 442.474 705.863 442.474H236.363L297.863 329.474Z" fill="white"/>
<path d="M617.363 658.473C651.863 658.473 651.863 676.973 651.863 695.473C651.863 716.833 641.863 728.973 617.363 749.473C599.802 764.167 564.863 776.473 543.363 776.473H62.3633L0.863281 884.473C162.863 883.639 506.063 882.473 582.863 884.473C678.863 886.973 764.363 761.473 781.863 695.473C799.363 629.473 747.363 601.973 764.363 601.973C781.363 601.973 869.451 555.974 899.863 442.474C924.193 351.674 846.001 329.307 803.863 329.474H297.863L236.363 442.474H705.863C741.863 442.474 775.363 442.474 747.363 488.973C712.919 546.174 672.197 556.973 651.863 552.973H180.363L123.863 658.473M617.363 658.473C589.763 658.473 276.863 658.473 123.863 658.473M617.363 658.473H123.863" stroke="black"/>
<path d="M840.213 787.472H1500.56L1448.21 884.472H787.863L840.213 787.472Z" fill="white"/>
<path d="M1073.21 338.473H1733.56L1681.21 435.473H1020.86L1073.21 338.473Z" fill="white"/>
<path d="M3656.21 330.473L4354.36 330.473L3595.86 892.973H3418.86L4055.86 433.973H3595.86L3656.21 330.473Z" fill="white"/>
<path d="M2818.36 330.473H3395.86C3395.86 330.473 3453.36 330.473 3474.86 378.473C3496.36 426.473 3482.86 451.973 3482.86 451.973L3303.86 796.473C3303.86 796.473 3259.36 845.559 3222.11 863.473C3184.86 881.387 3119.36 884.473 3119.36 884.473H2534.36L2590.86 781.973C2590.86 781.973 3124.36 793.473 3153.86 781.973C3183.36 770.473 3222.11 698.473 3222.11 698.473L3315.36 522.973C3315.36 522.973 3338.36 468.472 3337.36 451.973C3336.36 435.473 3295.86 435.473 3295.86 435.473H2764.86L2818.36 330.473Z" fill="white"/>
<path d="M2310.87 886.979L1924.36 490.973L1710.36 886.979L1582.86 886.979L1869.37 335.975L1954.87 335.973L2350.87 732.978L2554.37 329.478L2688.36 329.478L2399.37 886.979L2310.87 886.979Z" fill="white"/>
<path d="M957.213 558.473H1507.56L1455.21 655.473H904.863L957.213 558.473Z" fill="white"/>
</svg>
