<?xml version="1.0" encoding="UTF-8" standalone="no"?>
<!DOCTYPE svg PUBLIC "-//W3C//DTD SVG 1.1//EN" "http://www.w3.org/Graphics/SVG/1.1/DTD/svg11.dtd">
<svg width="100%" height="100%" viewBox="0 0 1901 552" version="1.1" xmlns="http://www.w3.org/2000/svg" xmlns:xlink="http://www.w3.org/1999/xlink" xml:space="preserve" xmlns:serif="http://www.serif.com/" style="fill-rule:evenodd;clip-rule:evenodd;stroke-linejoin:round;stroke-miterlimit:2;">
    <g>
        <clipPath id="_clip1">
            <rect x="32" y="73.85" width="1820.27" height="338.869"/>
        </clipPath>
        <g clip-path="url(#_clip1)">
            <path d="M1008.23,411.56C966.2,403.59 941.39,381.55 921.5,334.5C918.95,328.45 914.68,318.33 912.01,312C909.35,305.67 902.17,288.8 896.04,274.5C889.92,260.2 879.19,235.11 872.21,218.75C863.32,197.93 859.29,189.52 858.78,190.75C858.39,191.71 846.35,239.52 832.03,297C817.71,354.48 805.52,403.19 804.95,405.25L803.91,409L764.45,409C742.75,409 725,408.77 725,408.48C725,407.49 747.21,319.68 765.85,247C769.73,231.88 776.74,204.24 781.44,185.6C786.85,164.16 790.87,150.18 792.4,147.58C798.21,137.66 812.89,127.65 826.25,124.5C848.3,119.31 865.17,128.42 880.39,153.75C888.26,166.84 907.45,210.27 941.5,292.03C956.34,327.66 962.19,339.47 970.35,350.3C980.37,363.6 992.07,371.97 1008.5,377.58C1019.15,381.23 1040.59,382.14 1054.5,379.55C1107.2,369.72 1159.81,327.55 1185.55,274.5C1195.59,253.81 1199.77,241.13 1210.97,197.48C1215.61,179.39 1217.43,170.73 1216.65,170.46C1216.02,170.23 1213.58,169.64 1211.24,169.13C1207.15,168.24 1206.96,168.31 1206.4,170.85C1206.08,172.31 1205.22,175.52 1204.49,178C1203.75,180.48 1200.38,193.3 1196.98,206.5C1189.01,237.48 1184.31,251.48 1176.53,267.5C1166.36,288.42 1156.8,302.06 1140.58,318.8C1116.12,344.04 1083.33,362.93 1054.09,368.64C1044.68,370.48 1026.49,370.67 1018.5,369.03C1005.5,366.34 990.59,357.31 981.77,346.75C972.72,335.94 967.28,325.18 951.52,287C933.66,243.72 902.85,172.62 896.92,161C888.73,144.95 883.79,137.69 875.06,128.89C864.14,117.88 851.1,112.07 837.21,112.02C826.64,111.97 808.8,117.74 799.92,124.06C798.31,125.2 797,125.97 797,125.76C797,124.86 808.1,81.23 809.1,78.2L810.21,74.85L840.35,75.2C868.26,75.53 870.89,75.72 875.73,77.67C888.59,82.88 901.38,95.65 910.35,112.23C916.96,124.46 949.76,196.73 961.76,225.5C964.51,232.1 970.86,247.29 975.88,259.25C980.9,271.22 985,281.19 985,281.41C985,282.76 997.68,310.06 1000.72,315.24C1005.78,323.91 1012.92,331.15 1020.24,335.05C1025.79,338 1027.48,338.39 1036.47,338.78C1044.33,339.12 1048.39,338.77 1055.28,337.12C1088.73,329.13 1118.55,306.48 1136.37,275.5C1147.44,256.25 1153.16,237.87 1176.05,148C1185.36,111.43 1193.35,80.15 1193.81,78.5L1194.64,75.5L1269.57,75.2C1345.29,74.89 1367.17,75.53 1384.76,78.55C1419.18,84.46 1448.7,101.57 1466.64,126C1473.58,135.46 1473.5,134.75 1468.72,144.15C1465.41,150.66 1456.03,174.02 1452.33,185C1452.05,185.82 1450.96,183.12 1449.91,179C1448.3,172.67 1440.42,154.78 1437.18,150.12C1436.28,148.82 1433.7,150.15 1427.72,155.02C1427.29,155.37 1428.53,158.3 1430.47,161.52C1438.26,174.45 1441.34,186.4 1441.43,204L1441.5,217.5L1436.12,230C1433.16,236.88 1428.98,245.75 1426.82,249.72C1415.34,270.82 1396.6,290.51 1377.05,301.98C1374.06,303.74 1372.09,304.58 1372.68,303.84C1388.09,284.71 1397.67,263.42 1403.02,236.45C1405.78,222.54 1406.04,203.68 1403.6,193.5C1399.17,175.03 1388.97,161.51 1373.85,154.1C1357.75,146.21 1347.94,145.04 1297.73,145.02L1260.96,145L1259.99,147.25C1259.47,148.49 1256.74,158.73 1253.95,170C1243.26,213.09 1231.58,251.34 1223.12,270.96C1218.32,282.11 1208.73,299.44 1200.96,311.04C1166.9,361.84 1114.86,398.02 1058.46,410.09C1045.66,412.83 1019.04,413.61 1008.23,411.56ZM1225.33,141.25C1227.94,130.94 1230.89,121.38 1231.88,120C1235.01,115.66 1238.75,115.08 1263,115.12L1285.5,115.15L1285.8,110.08L1286.1,105L1233.39,105L1228.85,107.88C1226.36,109.46 1223.31,112.39 1222.08,114.38C1220.33,117.2 1210,153.64 1210,156.98C1210,157.6 1216.21,159.5 1219.54,159.88C1220.11,159.95 1222.72,151.56 1225.33,141.25ZM1425.27,143.59L1429.03,140.26L1422.36,134.02C1411.42,123.78 1399.77,117.18 1382.67,111.53C1365.88,105.98 1357.31,105 1325.32,105L1297,105L1297,110.25L1297.01,115.5L1324.75,115.64C1345.45,115.75 1354.9,116.2 1361.96,117.43C1381.99,120.91 1399.34,128.74 1413.11,140.52C1417.17,144 1420.72,146.86 1421,146.88C1421.28,146.9 1423.19,145.42 1425.27,143.59ZM39,408.25C39,407.78 43.52,389.87 49.05,368.45C67.84,295.66 96.71,183.21 113.15,118.75L124.31,75L218.41,75C277.43,75.01 316.76,75.41 323.92,76.08C348.53,78.38 369.28,86.54 381.64,98.78C394.77,111.79 400.33,126.37 400.37,148C400.39,161.44 398.74,169.54 393.37,182.32C385.59,200.82 367.41,219.75 345.36,232.32C341.32,234.62 338.02,236.8 338.01,237.16C338,237.53 341.04,239.51 344.75,241.57C354.07,246.75 367.55,260.43 371.77,269C376.88,279.37 378.47,286.88 378.43,300.5C378.39,317.23 375.4,330.12 368.23,344.5C363.55,353.88 360.01,358.89 352.12,367.29C332.94,387.7 306.67,400.07 268.43,406.66C259.57,408.18 246.72,408.41 148.75,408.73C88.39,408.93 39,408.72 39,408.25ZM257.97,346.15C276.4,340.53 289.5,330.84 295.74,318.21C299.4,310.81 299.5,310.32 299.5,299.55C299.5,289.32 299.3,288.16 296.77,283.86C293.56,278.4 289.56,274.82 282.87,271.43C272.45,266.16 269.72,265.96 209.81,266.24L154.5,266.5L144.28,306.5C138.65,328.5 134.04,347.08 134.03,347.8C134,348.84 145.05,349.03 192.25,348.76C249.54,348.43 250.62,348.39 257.97,346.15ZM280.74,208.5C291,206.08 299.78,201.26 307.09,194.02C315.57,185.63 318.13,179.48 318.77,165.93C319.18,157.16 319.01,155.94 316.66,151.31C312.37,142.86 303.45,136.99 291.89,135.02C287.71,134.31 268.55,134.03 236.6,134.22L187.69,134.5L178.39,171C173.28,191.07 169.07,208.06 169.05,208.75C168.97,210.74 272.22,210.51 280.74,208.5ZM402,407.87C402,407.25 409.71,376.53 419.14,339.62C428.56,302.7 447.43,228.18 461.07,174L485.86,75.5L617.43,75.25C722.37,75.04 749,75.25 748.99,76.25C748.97,78.5 734.34,134.99 733.58,135.76C733.17,136.16 691.58,136.73 641.17,137L549.5,137.5L540.79,172C535.99,190.98 532.06,207.06 532.04,207.75C532.01,208.74 548.66,209 612.08,209L692.16,209L691.55,211.76C691.22,213.28 687.89,226.44 684.15,241.01L677.35,267.5L596.97,268L516.58,268.5L507.35,305C502.27,325.08 497.86,342.51 497.54,343.75L496.96,346L593.48,346C646.57,346 689.99,346.11 689.98,346.25C689.97,346.39 686.4,360.45 682.05,377.5L674.13,408.5L538.07,408.75C437.13,408.94 402,408.71 402,407.87ZM1109.13,408.54C1109.43,408.23 1113.73,406.01 1118.68,403.6C1129.09,398.54 1141.67,390.89 1151.12,383.9L1157.74,379L1222.81,379L1223.15,373.92C1223.34,371.12 1223.31,368.65 1223.08,368.42C1222.85,368.19 1210.93,368 1196.58,368L1170.5,367.99L1176.68,362.48C1189.87,350.71 1208.98,326.24 1222.27,304.1C1224.45,300.47 1225.99,298.23 1225.69,299.13C1225.11,300.89 1220.05,319.73 1217.53,329.47C1216.69,332.76 1215.74,336.24 1215.43,337.22C1214.9,338.91 1217.02,339 1255.68,339C1278.13,339 1301.45,338.54 1307.5,337.99C1349.56,334.13 1385.22,318.97 1411.64,293.71C1433.2,273.1 1444.36,252.79 1461.47,203C1474.3,165.68 1483.2,145.52 1494.06,129.11C1509.05,106.46 1529.86,90.36 1554.85,82.07C1575.22,75.32 1566.47,75.68 1716.38,75.28L1852.27,74.92L1851.61,79.86C1850.5,88.27 1842.36,119.2 1839.73,125C1838.37,128.02 1828.57,142.65 1817.96,157.5C1782.08,207.74 1730.39,280.37 1712.98,305C1703.46,318.48 1691.81,334.94 1687.09,341.59C1682.36,348.23 1669.72,366.1 1659,381.3L1639.5,408.92L1620.25,408.96C1609.66,408.98 1601,408.76 1601,408.47C1601,408.03 1614.82,388.35 1655.69,330.59L1660.88,323.25L1652.1,316.95L1648.2,322.22C1646.06,325.13 1631.36,345.84 1615.53,368.25L1586.76,409L1567.27,409C1551.32,409 1547.88,408.76 1548.3,407.65C1548.79,406.38 1559.74,390.92 1593.36,344C1611.93,318.1 1688.99,210.02 1715.17,173.18C1726.62,157.05 1736,143.64 1736,143.37C1736,143.11 1704.16,143.06 1665.25,143.26C1587.23,143.67 1588.87,143.54 1577.32,150.12C1563.47,158 1556.35,170.81 1536.49,223.5C1522.92,259.52 1521.92,261.95 1515.06,275.5C1507.03,291.35 1496.01,308.18 1484.2,322.64C1451.58,362.59 1402.19,391.93 1349.05,402.94C1322.63,408.42 1325.19,408.31 1213.03,408.72C1155.57,408.93 1108.82,408.85 1109.13,408.54ZM1298.64,375.25C1298.3,373.19 1298.02,370.71 1298.01,369.75C1298,368.12 1295.83,368 1266.5,368L1235,368L1235,379L1299.26,379L1298.64,375.25ZM1327.78,375.92C1376.64,368.47 1418.64,347.93 1448.52,316.88C1471.57,292.93 1482.28,273.78 1500.59,223.79C1515.92,181.93 1517.18,178.62 1521.9,168C1531.89,145.49 1543.74,132.62 1563.68,122.64C1572.58,118.19 1582.1,115.5 1594.19,114.03C1600.69,113.24 1631.67,112.98 1696.71,113.2C1783.15,113.48 1790.05,113.62 1791.64,115.21C1793.91,117.48 1793.36,118.58 1782.3,134C1739.61,193.53 1732,204.25 1732,204.94C1732,206.43 1740.05,211.35 1740.96,210.41C1741.45,209.91 1755.59,190.23 1772.39,166.67C1793.18,137.52 1803.15,122.72 1803.6,120.33C1804.58,115.08 1802.51,109.49 1798.41,106.36C1795.34,104.02 1793.51,103.56 1784.19,102.8C1778.31,102.32 1732.45,102.16 1682.29,102.45C1605.61,102.88 1589.89,103.21 1583.63,104.5C1557.63,109.87 1535.81,124.04 1522,144.5C1514.04,156.3 1510.19,165.18 1495.69,205.08C1474.94,262.17 1466.24,279.54 1446.8,302.65C1419.29,335.38 1370.05,359.97 1319.75,366.13L1310,367.32L1310,372.66C1310,379.04 1308.78,378.82 1327.78,375.92ZM1690.63,281.25C1704.23,262.14 1719.82,240.31 1725.27,232.73L1735.18,218.97L1732.84,217.04C1729.9,214.63 1726.11,212.53 1725.67,213.08C1725.49,213.31 1712.32,231.85 1696.42,254.28C1680.51,276.71 1665.15,298.35 1662.28,302.38L1657.07,309.69L1661.28,312.81C1663.6,314.52 1665.59,315.94 1665.69,315.96C1665.8,315.98 1677.02,300.36 1690.63,281.25ZM1033.5,316.7C1023.14,311.72 1015.62,300.48 1008.14,278.78C1004.24,267.48 1004.22,267.3 1005.62,261.93C1009.48,247.11 1046.68,99.79 1049.41,88.5L1052.55,75.5L1091.78,75.24C1124.79,75.02 1131,75.2 1131,76.37C1131,77.14 1126.11,97.06 1120.13,120.63C1114.15,144.21 1103.09,187.8 1095.56,217.5C1074.85,299.19 1073.01,306.33 1072.07,308.58C1071.56,309.79 1067.89,312.3 1063.36,314.54C1056.47,317.94 1054.51,318.45 1047.01,318.75C1039.64,319.05 1037.83,318.78 1033.5,316.7Z" style="fill:rgb(247,247,247);fill-rule:nonzero;"/>
        </g>
    </g>
</svg>
