<svg width="160" height="43" viewBox="0 0 160 43" fill="none" xmlns="http://www.w3.org/2000/svg">
<path d="M10.9574 11.9971H28.877C30.3692 11.9914 33.1383 12.7571 32.2767 15.8653C31.1997 19.7506 28.0801 21.3253 27.4781 21.3253C26.8761 21.3253 28.7176 22.2667 28.0979 24.526C27.4781 26.7853 24.4502 31.0814 21.0505 30.9958C18.3307 30.9273 6.17654 30.9673 0.439453 30.9958L2.61742 27.2988H19.6516C20.413 27.2988 21.6503 26.8775 22.2722 26.3745C23.1399 25.6727 23.494 25.2572 23.494 24.526C23.494 23.8927 23.494 23.2594 22.2722 23.2594H4.79539L6.79628 19.6479H23.494C24.2141 19.7848 25.6563 19.4152 26.8761 17.4571C27.8677 15.8653 26.6813 15.8653 25.4064 15.8653H8.77947L10.9574 11.9971Z" fill="white"/>
<path d="M22.2722 23.2594C23.494 23.2594 23.494 23.8927 23.494 24.526C23.494 25.2572 23.1399 25.6727 22.2722 26.3745C21.6503 26.8775 20.413 27.2988 19.6516 27.2988H2.61742L0.439453 30.9958C6.17654 30.9673 18.3307 30.9273 21.0505 30.9958C24.4502 31.0814 27.4781 26.7853 28.0979 24.526C28.7176 22.2667 26.8761 21.3253 27.4781 21.3253C28.0801 21.3253 31.1997 19.7506 32.2767 15.8653C33.1383 12.7571 30.3692 11.9914 28.877 11.9971H10.9574L8.77947 15.8653H25.4064C26.6813 15.8653 27.8677 15.8653 26.8761 17.4571C25.6563 19.4152 24.2141 19.7848 23.494 19.6479H6.79628L4.79539 23.2594M22.2722 23.2594C21.2948 23.2594 10.2137 23.2594 4.79539 23.2594M22.2722 23.2594H4.79539" stroke="white" stroke-width="0.5"/>
<path d="M32.2758 28H55.4395L53.6031 31H30.4395L32.2758 28Z" fill="white" stroke="white" stroke-width="0.5"/>
<path d="M40.2758 12H63.4395L61.6031 15H38.4395L40.2758 12Z" fill="white" stroke="white" stroke-width="0.5"/>
<path d="M133.812 12L158.439 12L131.683 31H125.439L147.91 15.496H131.683L133.812 12Z" fill="white" stroke="white" stroke-width="0.5"/>
<path d="M103.277 12H123.281C123.281 12 125.273 12 126.017 13.6462C126.762 15.2924 126.295 16.167 126.295 16.167L120.094 27.9819C120.094 27.9819 118.553 29.6654 117.262 30.2798C115.972 30.8942 113.703 31 113.703 31H93.4395L95.3966 27.4847C95.3966 27.4847 113.876 27.8791 114.898 27.4847C115.92 27.0903 117.262 24.6209 117.262 24.6209L120.492 18.602C120.492 18.602 121.289 16.7328 121.255 16.167C121.22 15.6011 119.817 15.6011 119.817 15.6011H101.424L103.277 12Z" fill="white" stroke="white" stroke-width="0.5"/>
<path d="M84.6084 31.1241L71.0458 17.2281L63.5365 31.1241L59.0625 31.124L69.1159 11.7892L72.1161 11.7892L86.0121 25.7201L93.1529 11.5613L97.8546 11.5613L87.7138 31.124L84.6084 31.1241Z" fill="white" stroke="white" stroke-width="0.5"/>
<path d="M36.2635 20H55.4395L53.6154 23H34.4395L36.2635 20Z" fill="white" stroke="white" stroke-width="0.5"/>
</svg>
